<svg width="471" height="513" viewBox="0 0 471 513" fill="none" xmlns="http://www.w3.org/2000/svg">
<path fill-rule="evenodd" clip-rule="evenodd" d="M381.344 82.115C430.375 82.115 470.123 121.809 470.123 170.773C470.123 217.277 434.271 255.412 388.664 259.129C393.998 270.521 396.984 283.229 396.984 296.635C396.984 343.281 360.912 381.51 315.105 385.027C320.701 396.642 323.836 409.662 323.836 423.414C323.836 472.378 284.089 512.072 235.057 512.072C186.026 512.072 146.278 472.378 146.278 423.414C146.278 409.662 149.414 396.642 155.009 385.027C109.207 381.507 73.1392 343.278 73.1392 296.635C73.1392 283.229 76.1233 270.521 81.4569 259.129C35.8511 255.411 0 217.276 0 170.773C0 121.809 39.7477 82.115 88.779 82.115C119.122 82.115 145.906 97.3201 161.918 120.514C177.93 97.3201 204.714 82.115 235.057 82.115C265.403 82.115 292.189 97.3228 308.201 120.52C324.212 97.3228 350.998 82.115 381.344 82.115ZM235.057 368.071C204.451 368.071 179.639 392.849 179.639 423.414C179.639 453.979 204.451 478.757 235.057 478.757C265.664 478.757 290.476 453.979 290.476 423.414C290.476 392.849 265.664 368.071 235.057 368.071ZM161.918 241.292C131.311 241.292 106.5 266.07 106.5 296.635C106.5 327.2 131.311 351.978 161.918 351.978C192.525 351.978 217.337 327.2 217.337 296.635C217.337 266.07 192.525 241.292 161.918 241.292ZM308.205 241.292C277.598 241.292 252.786 266.07 252.786 296.635C252.786 327.2 277.598 351.978 308.205 351.978C338.811 351.978 363.623 327.2 363.623 296.635C363.623 266.07 338.811 241.292 308.205 241.292ZM88.779 115.43C58.1723 115.43 33.3606 140.208 33.3606 170.773C33.3606 201.339 58.1723 226.117 88.779 226.117C119.386 226.117 144.197 201.339 144.197 170.773C144.197 140.208 119.386 115.43 88.779 115.43ZM235.057 115.43C204.451 115.43 179.639 140.208 179.639 170.773C179.639 201.339 204.451 226.117 235.057 226.117C265.664 226.117 290.476 201.339 290.476 170.773C290.476 140.208 265.664 115.43 235.057 115.43ZM381.344 115.43C350.737 115.43 325.925 140.208 325.925 170.773C325.925 201.339 350.737 226.117 381.344 226.117C411.951 226.117 436.762 201.339 436.762 170.773C436.762 140.208 411.951 115.43 381.344 115.43Z" fill="currentColor"/>
<path d="M186.352 0C190.022 0.000136238 193.625 0.986203 196.781 2.8549L220.841 17.0989C227.271 20.9055 235.269 20.9055 241.699 17.0989L265.761 2.8549C268.917 0.9865 272.519 0.000136978 276.188 0H303.11C308.091 -4.34812e-07 312.128 4.03228 312.128 9.00595C312.128 12.1861 310.449 15.1314 307.71 16.7532L241.699 55.8292C235.269 59.6357 227.271 59.6357 220.841 55.8292L154.83 16.7532C152.091 15.1314 150.412 12.1861 150.412 9.00595C150.412 4.03228 154.45 4.34812e-07 159.43 0H186.352Z" fill="currentColor"/>
</svg>